<svg viewBox="0 0 1620 1580" xmlns="http://www.w3.org/2000/svg" font-family="Segoe UI, Helvetica, Arial, sans-serif">
<rect x="0" y="0" width="1620" height="1580" fill="#ffffff"/>

<defs>
  <marker id="arrowhead" markerWidth="10" markerHeight="10" refX="7" refY="5" orient="auto">
    <path d="M0,0 L10,5 L0,10 Z" fill="#334155"/>
  </marker>
</defs>

<text x="810.0" y="38.0" text-anchor="middle" font-family="Segoe UI, Helvetica, Arial, sans-serif" font-size="22" font-weight="700" fill="#0f172a">
<tspan x="810.0" dy="0">Vector search + LLM : Salesforce Einstein  vs  Stack locale (Ollama)</tspan>
</text>
<rect x="210" y="64" width="560" height="38" rx="8" ry="8" fill="#0176D3" stroke="#0176D3" stroke-width="0"/>
<text x="490.0" y="84.0" text-anchor="middle" font-family="Segoe UI, Helvetica, Arial, sans-serif" font-size="15" font-weight="700" fill="white">
<tspan x="490.0" dy="0">SALESFORCE EINSTEIN / DATA CLOUD / AGENTFORCE</tspan>
</text>
<rect x="830" y="64" width="560" height="38" rx="8" ry="8" fill="#15803d" stroke="#15803d" stroke-width="0"/>
<text x="1110.0" y="84.0" text-anchor="middle" font-family="Segoe UI, Helvetica, Arial, sans-serif" font-size="15" font-weight="700" fill="white">
<tspan x="1110.0" dy="0">STACK LOCALE ÉQUIVALENTE (Ollama)</tspan>
</text>
<rect x="210" y="110" width="560" height="76" rx="12" ry="12" fill="#f8fafc" stroke="#94a3b8" stroke-width="2"/>
<text x="490.0" y="139.5" text-anchor="middle" font-family="Segoe UI, Helvetica, Arial, sans-serif" font-size="15.5" font-weight="600" fill="#1f2937">
<tspan x="490.0" dy="0">Requête utilisateur</tspan>
<tspan x="490.0" dy="19">(langage naturel)</tspan>
</text>
<rect x="210" y="252" width="560" height="96" rx="12" ry="12" fill="#d1fae5" stroke="#059669" stroke-width="2"/>
<text x="490.0" y="272.5" text-anchor="middle" font-family="Segoe UI, Helvetica, Arial, sans-serif" font-size="15.5" font-weight="600" fill="#065f46">
<tspan x="490.0" dy="0">[OK] Modèles d'embedding (Data 360)</tspan>
<tspan x="490.0" dy="19">Texte : E5-large-v2, Multilingual-E5-large,</tspan>
<tspan x="490.0" dy="19">SFR-v2-small (Salesforce Research)</tspan>
<tspan x="490.0" dy="19">Audio : Whisper-Large-V3 (OpenAI)</tspan>
</text>
<line x1="490.0" y1="186" x2="490.0" y2="252" stroke="#334155" stroke-width="2.6" marker-end="url(#arrowhead)"/>
<rect x="210" y="414" width="560" height="76" rx="12" ry="12" fill="#f8fafc" stroke="#94a3b8" stroke-width="2"/>
<text x="490.0" y="453.0" text-anchor="middle" font-family="Segoe UI, Helvetica, Arial, sans-serif" font-size="15.5" font-weight="600" fill="#1f2937">
<tspan x="490.0" dy="0">Vecteur de requête</tspan>
</text>
<line x1="490.0" y1="348" x2="490.0" y2="414" stroke="#334155" stroke-width="2.6" marker-end="url(#arrowhead)"/>
<path d="M 210,572 A 280.0,16 0 0,0 770,572 L 770,616 A 280.0,16 0 0,1 210,616 Z" fill="#dbeafe" stroke="#2563eb" stroke-width="2.5" stroke-linejoin="round"/>
<ellipse cx="490.0" cy="572" rx="280.0" ry="16" fill="#dbeafe" stroke="#2563eb" stroke-width="2.5"/>
<path d="M 212.5 572 A 277.5 14.5 0 0,1 767.5 572" fill="none" stroke="#2563eb" stroke-width="1" opacity="0.25"/>
<text x="490.0" y="606.0" text-anchor="middle" font-family="Segoe UI, Helvetica, Arial, sans-serif" font-size="15.5" font-weight="600" fill="#1e3a8a">
<tspan x="490.0" dy="0">DATA CLOUD — Base vectorielle</tspan>
</text>
<line x1="490.0" y1="490" x2="490.0" y2="556" stroke="#334155" stroke-width="2.6" marker-end="url(#arrowhead)"/>
<rect x="210" y="698" width="560" height="76" rx="12" ry="12" fill="#f8fafc" stroke="#94a3b8" stroke-width="2"/>
<text x="490.0" y="727.5" text-anchor="middle" font-family="Segoe UI, Helvetica, Arial, sans-serif" font-size="15.5" font-weight="600" fill="#1f2937">
<tspan x="490.0" dy="0">Chunks pertinents</tspan>
<tspan x="490.0" dy="19">+ citations sources</tspan>
</text>
<line x1="490.0" y1="632" x2="490.0" y2="698" stroke="#334155" stroke-width="2.6" marker-end="url(#arrowhead)"/>
<rect x="210" y="840" width="560" height="76" rx="12" ry="12" fill="#fef3c7" stroke="#d97706" stroke-width="2"/>
<text x="490.0" y="860.0" text-anchor="middle" font-family="Segoe UI, Helvetica, Arial, sans-serif" font-size="15.5" font-weight="600" fill="#92400e">
<tspan x="490.0" dy="0">[?] Atlas Reasoning Engine</tspan>
<tspan x="490.0" dy="19">LLM interne spécialisé</tspan>
<tspan x="490.0" dy="19">(intention, classification, planning)</tspan>
</text>
<line x1="490.0" y1="774" x2="490.0" y2="840" stroke="#334155" stroke-width="2.6" marker-end="url(#arrowhead)"/>
<rect x="210" y="982" width="560" height="96" rx="12" ry="12" fill="#d1fae5" stroke="#059669" stroke-width="2"/>
<text x="490.0" y="1002.5" text-anchor="middle" font-family="Segoe UI, Helvetica, Arial, sans-serif" font-size="15.5" font-weight="600" fill="#065f46">
<tspan x="490.0" dy="0">[OK] LLM génératif final</tspan>
<tspan x="490.0" dy="19">Défaut : GPT-4o (OpenAI/Azure)</tspan>
<tspan x="490.0" dy="19">Configurable : Claude Sonnet 4 (Bedrock),</tspan>
<tspan x="490.0" dy="19">Gemini, ou BYOLLM</tspan>
</text>
<line x1="490.0" y1="916" x2="490.0" y2="982" stroke="#334155" stroke-width="2.6" marker-end="url(#arrowhead)"/>
<rect x="210" y="1144" width="560" height="76" rx="12" ry="12" fill="#e5e7eb" stroke="#6b7280" stroke-width="2"/>
<text x="490.0" y="1164.0" text-anchor="middle" font-family="Segoe UI, Helvetica, Arial, sans-serif" font-size="15.5" font-weight="600" fill="#374151">
<tspan x="490.0" dy="0">Einstein Trust Layer</tspan>
<tspan x="490.0" dy="19">masquage PII, validation,</tspan>
<tspan x="490.0" dy="19">anti-hallucination</tspan>
</text>
<line x1="490.0" y1="1078" x2="490.0" y2="1144" stroke="#334155" stroke-width="2.6" marker-end="url(#arrowhead)"/>
<rect x="210" y="1286" width="560" height="76" rx="12" ry="12" fill="#f8fafc" stroke="#94a3b8" stroke-width="2"/>
<text x="490.0" y="1315.5" text-anchor="middle" font-family="Segoe UI, Helvetica, Arial, sans-serif" font-size="15.5" font-weight="600" fill="#1f2937">
<tspan x="490.0" dy="0">Réponse finale</tspan>
<tspan x="490.0" dy="19">+ sources citées</tspan>
</text>
<line x1="490.0" y1="1220" x2="490.0" y2="1286" stroke="#334155" stroke-width="2.6" marker-end="url(#arrowhead)"/>
<rect x="830" y="110" width="560" height="76" rx="12" ry="12" fill="#f8fafc" stroke="#94a3b8" stroke-width="2"/>
<text x="1110.0" y="139.5" text-anchor="middle" font-family="Segoe UI, Helvetica, Arial, sans-serif" font-size="15.5" font-weight="600" fill="#1f2937">
<tspan x="1110.0" dy="0">Requête utilisateur</tspan>
<tspan x="1110.0" dy="19">(langage naturel)</tspan>
</text>
<rect x="830" y="252" width="560" height="96" rx="12" ry="12" fill="#d1fae5" stroke="#059669" stroke-width="2"/>
<text x="1110.0" y="291.5" text-anchor="middle" font-family="Segoe UI, Helvetica, Arial, sans-serif" font-size="15.5" font-weight="600" fill="#065f46">
<tspan x="1110.0" dy="0">[OK] Modèle d'embedding open source</tspan>
<tspan x="1110.0" dy="19">nomic-embed-text / bge / e5</tspan>
</text>
<line x1="1110.0" y1="186" x2="1110.0" y2="252" stroke="#334155" stroke-width="2.6" marker-end="url(#arrowhead)"/>
<rect x="830" y="414" width="560" height="76" rx="12" ry="12" fill="#f8fafc" stroke="#94a3b8" stroke-width="2"/>
<text x="1110.0" y="453.0" text-anchor="middle" font-family="Segoe UI, Helvetica, Arial, sans-serif" font-size="15.5" font-weight="600" fill="#1f2937">
<tspan x="1110.0" dy="0">Vecteur de requête</tspan>
</text>
<line x1="1110.0" y1="348" x2="1110.0" y2="414" stroke="#334155" stroke-width="2.6" marker-end="url(#arrowhead)"/>
<path d="M 830,572 A 280.0,16 0 0,0 1390,572 L 1390,616 A 280.0,16 0 0,1 830,616 Z" fill="#dcfce7" stroke="#16a34a" stroke-width="2.5" stroke-linejoin="round"/>
<ellipse cx="1110.0" cy="572" rx="280.0" ry="16" fill="#dcfce7" stroke="#16a34a" stroke-width="2.5"/>
<path d="M 832.5 572 A 277.5 14.5 0 0,1 1387.5 572" fill="none" stroke="#16a34a" stroke-width="1" opacity="0.25"/>
<text x="1110.0" y="606.0" text-anchor="middle" font-family="Segoe UI, Helvetica, Arial, sans-serif" font-size="15.5" font-weight="600" fill="#14532d">
<tspan x="1110.0" dy="0">FAISS / Chroma / Qdrant</tspan>
</text>
<line x1="1110.0" y1="490" x2="1110.0" y2="556" stroke="#334155" stroke-width="2.6" marker-end="url(#arrowhead)"/>
<rect x="830" y="698" width="560" height="76" rx="12" ry="12" fill="#f8fafc" stroke="#94a3b8" stroke-width="2"/>
<text x="1110.0" y="737.0" text-anchor="middle" font-family="Segoe UI, Helvetica, Arial, sans-serif" font-size="15.5" font-weight="600" fill="#1f2937">
<tspan x="1110.0" dy="0">Chunks pertinents</tspan>
</text>
<line x1="1110.0" y1="632" x2="1110.0" y2="698" stroke="#334155" stroke-width="2.6" marker-end="url(#arrowhead)"/>
<rect x="830" y="840" width="560" height="76" rx="12" ry="12" fill="#e5e7eb" stroke="#6b7280" stroke-width="2"/>
<text x="1110.0" y="869.5" text-anchor="middle" font-family="Segoe UI, Helvetica, Arial, sans-serif" font-size="15.5" font-weight="600" fill="#374151">
<tspan x="1110.0" dy="0">(optionnel) routage / classification</tspan>
<tspan x="1110.0" dy="19">script simple ou petit LLM</tspan>
</text>
<line x1="1110.0" y1="774" x2="1110.0" y2="840" stroke="#334155" stroke-width="2.6" marker-end="url(#arrowhead)"/>
<rect x="830" y="982" width="560" height="96" rx="12" ry="12" fill="#d1fae5" stroke="#059669" stroke-width="2"/>
<text x="1110.0" y="1012.0" text-anchor="middle" font-family="Segoe UI, Helvetica, Arial, sans-serif" font-size="15.5" font-weight="600" fill="#065f46">
<tspan x="1110.0" dy="0">[OK] LLM génératif local</tspan>
<tspan x="1110.0" dy="19">Phi-3 mini ou Gemma 2B</tspan>
<tspan x="1110.0" dy="19">via Ollama</tspan>
</text>
<line x1="1110.0" y1="916" x2="1110.0" y2="982" stroke="#334155" stroke-width="2.6" marker-end="url(#arrowhead)"/>
<rect x="830" y="1144" width="560" height="76" rx="12" ry="12" fill="#e5e7eb" stroke="#6b7280" stroke-width="2"/>
<text x="1110.0" y="1173.5" text-anchor="middle" font-family="Segoe UI, Helvetica, Arial, sans-serif" font-size="15.5" font-weight="600" fill="#374151">
<tspan x="1110.0" dy="0">[!] Pas de Trust Layer natif</tspan>
<tspan x="1110.0" dy="19">masquage PII à coder soi-même</tspan>
</text>
<line x1="1110.0" y1="1078" x2="1110.0" y2="1144" stroke="#334155" stroke-width="2.6" marker-end="url(#arrowhead)"/>
<rect x="830" y="1286" width="560" height="76" rx="12" ry="12" fill="#f8fafc" stroke="#94a3b8" stroke-width="2"/>
<text x="1110.0" y="1325.0" text-anchor="middle" font-family="Segoe UI, Helvetica, Arial, sans-serif" font-size="15.5" font-weight="600" fill="#1f2937">
<tspan x="1110.0" dy="0">Réponse finale</tspan>
</text>
<line x1="1110.0" y1="1220" x2="1110.0" y2="1286" stroke="#334155" stroke-width="2.6" marker-end="url(#arrowhead)"/>
<rect x="10" y="539.0" width="180" height="110" rx="12" ry="12" fill="#f1f5f9" stroke="#64748b" stroke-width="2" stroke-dasharray="6,4"/>
<text x="100.0" y="571.0" text-anchor="middle" font-family="Segoe UI, Helvetica, Arial, sans-serif" font-size="13.5" font-weight="600" fill="#334155">
<tspan x="100.0" dy="0">CRM + emails + PDFs</tspan>
<tspan x="100.0" dy="16">+ transcripts</tspan>
<tspan x="100.0" dy="16">déjà chunkés et</tspan>
<tspan x="100.0" dy="16">vectorisés</tspan>
</text>
<rect x="1410" y="539.0" width="180" height="110" rx="12" ry="12" fill="#f1f5f9" stroke="#64748b" stroke-width="2" stroke-dasharray="6,4"/>
<text x="1500.0" y="579.0" text-anchor="middle" font-family="Segoe UI, Helvetica, Arial, sans-serif" font-size="13.5" font-weight="600" fill="#334155">
<tspan x="1500.0" dy="0">Documents locaux</tspan>
<tspan x="1500.0" dy="16">déjà chunkés et</tspan>
<tspan x="1500.0" dy="16">vectorisés</tspan>
</text>
<line x1="190" y1="594.0" x2="210" y2="594.0" stroke="#334155" stroke-width="2.6" stroke-dasharray="7,6" marker-end="url(#arrowhead)"/>
<line x1="1410" y1="594.0" x2="1390" y2="594.0" stroke="#334155" stroke-width="2.6" stroke-dasharray="7,6" marker-end="url(#arrowhead)"/>
<rect x="10" y="1392" width="1600" height="120" rx="10" ry="10" fill="#f8fafc" stroke="#cbd5e1" stroke-width="1.5"/>
<text x="810.0" y="1418.0" text-anchor="middle" font-family="Segoe UI, Helvetica, Arial, sans-serif" font-size="14" font-weight="700" fill="#0f172a">
<tspan x="810.0" dy="0">LÉGENDE</tspan>
</text>
<rect x="40" y="1438" width="26" height="26" rx="5" ry="5" fill="#fef3c7" stroke="#d97706" stroke-width="2"/>
<text x="76" y="1457" font-family="Segoe UI, Helvetica, Arial, sans-serif" font-size="13.5" font-weight="500" fill="#1f2937">Inconnu / non documenté publiquement</text>
<rect x="600" y="1438" width="26" height="26" rx="5" ry="5" fill="#d1fae5" stroke="#059669" stroke-width="2"/>
<text x="636" y="1457" font-family="Segoe UI, Helvetica, Arial, sans-serif" font-size="13.5" font-weight="500" fill="#1f2937">Connu / documenté, ou équivalent open source clair</text>
<rect x="1120" y="1438" width="26" height="26" rx="5" ry="5" fill="#e5e7eb" stroke="#6b7280" stroke-width="2"/>
<text x="1156" y="1457" font-family="Segoe UI, Helvetica, Arial, sans-serif" font-size="13.5" font-weight="500" fill="#1f2937">Optionnel / différence d'architecture entre les deux stacks</text>
<text x="810.0" y="1492" text-anchor="middle" font-family="Segoe UI, Helvetica, Arial, sans-serif" font-size="12.5" font-style="italic" fill="#64748b">Salesforce : 3 modèles en jeu (embedding + Atlas + LLM final) — il ne reste qu'un seul inconnu : le LLM interne d'Atlas</text>
</svg>
